<svg width="24" height="24" viewBox="0 0 24 24" fill="none" xmlns="http://www.w3.org/2000/svg">
<path d="M13.55 20.16C13.29 20.27 13.01 20.37 12.71 20.47L11.13 20.99C7.16001 22.27 5.07001 21.2 3.78001 17.23L2.50001 13.28C1.22001 9.31 2.28001 7.21 6.25001 5.93L7.79001 5.42C7.60001 5.9 7.44001 6.45 7.29001 7.07L6.31001 11.26C5.21001 15.97 6.82001 18.57 11.53 19.69L13.21 20.09C13.32 20.12 13.44 20.14 13.55 20.16Z" fill="#F53434"/>
<path fill-rule="evenodd" clip-rule="evenodd" d="M15.4999 2.82001L17.1699 3.21001C21.3599 4.19001 22.6399 6.26001 21.6599 10.44L20.6799 14.62C19.8399 18.23 18.1799 19.69 15.0599 19.39C14.5599 19.35 14.0199 19.26 13.4399 19.12L11.7599 18.72C7.58994 17.73 6.29994 15.67 7.27994 11.49L8.25994 7.30001C8.45994 6.45001 8.69994 5.71001 8.99994 5.10001C10.1699 2.68001 12.1599 2.03001 15.4999 2.82001ZM12.3467 9.13266L12.0727 10.301L11.7986 11.4692C11.447 12.9686 12.3643 13.8308 13.835 13.3849L14.9845 13.0382L16.1341 12.6916C17.6047 12.2457 17.8925 11.019 16.7735 9.96558L15.898 9.14393L15.0225 8.32229C13.9034 7.26892 12.6984 7.63335 12.3467 9.13266Z" fill="#F53434"/>
</svg>
