<svg width="24" height="24" viewBox="0 0 24 24" fill="none" xmlns="http://www.w3.org/2000/svg">
<path fill-rule="evenodd" clip-rule="evenodd" d="M15.7475 10.8514C15.7475 13.5554 13.5555 15.7474 10.8515 15.7474C8.14752 15.7474 5.95551 13.5554 5.95551 10.8514C5.95551 8.14748 8.14752 5.95549 10.8515 5.95549C13.5555 5.95549 15.7475 8.14748 15.7475 10.8514ZM14.8823 16.0984C13.7663 16.957 12.3685 17.4676 10.8515 17.4676C7.19747 17.4676 4.23529 14.5054 4.23529 10.8514C4.23529 7.19744 7.19747 4.23529 10.8515 4.23529C14.5055 4.23529 17.4677 7.19744 17.4677 10.8514C17.4677 12.3683 16.9572 13.766 16.0987 14.882L19.5128 18.2965C19.8487 18.6324 19.8487 19.1769 19.5128 19.5128C19.1768 19.8487 18.6323 19.8487 18.2964 19.5128L14.8823 16.0984Z" fill="#656565"/>
</svg>
