<svg width="24" height="24" viewBox="0 0 24 24" fill="none" xmlns="http://www.w3.org/2000/svg">
<path d="M11.3614 5.17056H10.0036C6.60906 5.17056 5.25124 6.52838 5.25124 9.92294V13.9964C5.25124 17.391 6.60906 18.7488 10.0036 18.7488H14.0771C17.4716 18.7488 18.8294 17.391 18.8294 13.9964V12.6386" stroke="#EFEFEF" stroke-width="1.4" stroke-linecap="round" stroke-linejoin="round"/>
<path d="M14.7831 5.86305L9.43332 11.2129C9.22965 11.4165 9.02597 11.8171 8.98524 12.109L8.69331 14.1525C8.58468 14.8926 9.10744 15.4085 9.84746 15.3067L11.891 15.0148C12.1761 14.974 12.5767 14.7704 12.7871 14.5667L18.137 9.21687C19.0603 8.29355 19.4948 7.22087 18.137 5.86305C16.7791 4.50523 15.7065 4.93973 14.7831 5.86305Z" stroke="#EFEFEF" stroke-width="1.4" stroke-miterlimit="10" stroke-linecap="round" stroke-linejoin="round"/>
<path d="M14.016 6.63022C14.4708 8.25281 15.7404 9.52238 17.3698 9.98404" stroke="#EFEFEF" stroke-width="1.4" stroke-miterlimit="10" stroke-linecap="round" stroke-linejoin="round"/>
</svg>
