<svg width="32" height="32" viewBox="0 0 32 32" fill="none" xmlns="http://www.w3.org/2000/svg">
<g filter="url(#filter0_d_381_763)">
<mask id="path-1-inside-1_381_763" fill="white">
<path fill-rule="evenodd" clip-rule="evenodd" d="M31 16C31 24.2843 24.2843 31 16 31C7.71573 31 1 24.2843 1 16C1 7.71573 7.71573 1 16 1C24.2843 1 31 7.71573 31 16ZM20.5193 11.8974C20.5193 14.4642 18.4385 16.5449 15.8718 16.5449C13.3051 16.5449 11.2243 14.4642 11.2243 11.8974C11.2243 9.3307 13.3051 7.24995 15.8718 7.24995C18.4385 7.24995 20.5193 9.3307 20.5193 11.8974ZM8.71371 21.0281C8.57185 21.3225 8.49878 21.6452 8.50003 21.9719C8.49958 22.3014 8.57258 22.6268 8.71371 22.9245C9.16777 23.8594 10.4142 24.2867 11.4648 24.4915C12.2121 24.6591 12.971 24.7692 13.7351 24.8209C14.0022 24.8743 14.2604 24.8743 14.5275 24.8743C15.6848 24.9367 16.845 24.9188 17.9997 24.8209C18.7667 24.7686 19.5286 24.6584 20.279 24.4915C21.3206 24.2867 22.576 23.8594 23.0212 22.9245C23.3064 22.3246 23.3064 21.6281 23.0212 21.0281C22.576 20.0933 21.3206 19.6659 20.279 19.4523C19.5276 19.2926 18.766 19.1855 17.9997 19.1318C16.5809 19.0071 15.1539 19.0071 13.7351 19.1318C12.9688 19.1849 12.2072 19.292 11.4559 19.4523C10.4142 19.6659 9.15887 20.1378 8.71371 21.0281Z"/>
</mask>
<path fill-rule="evenodd" clip-rule="evenodd" d="M31 16C31 24.2843 24.2843 31 16 31C7.71573 31 1 24.2843 1 16C1 7.71573 7.71573 1 16 1C24.2843 1 31 7.71573 31 16ZM20.5193 11.8974C20.5193 14.4642 18.4385 16.5449 15.8718 16.5449C13.3051 16.5449 11.2243 14.4642 11.2243 11.8974C11.2243 9.3307 13.3051 7.24995 15.8718 7.24995C18.4385 7.24995 20.5193 9.3307 20.5193 11.8974ZM8.71371 21.0281C8.57185 21.3225 8.49878 21.6452 8.50003 21.9719C8.49958 22.3014 8.57258 22.6268 8.71371 22.9245C9.16777 23.8594 10.4142 24.2867 11.4648 24.4915C12.2121 24.6591 12.971 24.7692 13.7351 24.8209C14.0022 24.8743 14.2604 24.8743 14.5275 24.8743C15.6848 24.9367 16.845 24.9188 17.9997 24.8209C18.7667 24.7686 19.5286 24.6584 20.279 24.4915C21.3206 24.2867 22.576 23.8594 23.0212 22.9245C23.3064 22.3246 23.3064 21.6281 23.0212 21.0281C22.576 20.0933 21.3206 19.6659 20.279 19.4523C19.5276 19.2926 18.766 19.1855 17.9997 19.1318C16.5809 19.0071 15.1539 19.0071 13.7351 19.1318C12.9688 19.1849 12.2072 19.292 11.4559 19.4523C10.4142 19.6659 9.15887 20.1378 8.71371 21.0281Z" fill="#BDBDBD"/>
<path d="M8.50003 21.9719L9.43754 21.9732L9.43753 21.9683L8.50003 21.9719ZM8.71371 21.0281L7.8751 20.6088L7.86919 20.6211L8.71371 21.0281ZM8.71371 22.9245L7.86653 23.3261L7.87042 23.3341L8.71371 22.9245ZM11.4648 24.4915L11.67 23.5767L11.6571 23.5738L11.6442 23.5713L11.4648 24.4915ZM13.7351 24.8209L13.919 23.9016L13.8592 23.8897L13.7984 23.8855L13.7351 24.8209ZM14.5275 24.8743L14.5779 23.9382L14.5527 23.9368H14.5275V24.8743ZM17.9997 24.8209L17.9359 23.8856L17.9282 23.8861L17.9206 23.8868L17.9997 24.8209ZM20.279 24.4915L20.0981 23.5716L20.0867 23.5738L20.0754 23.5764L20.279 24.4915ZM23.0212 22.9245L23.8676 23.3276L23.8678 23.3271L23.0212 22.9245ZM23.0212 21.0281L23.8678 20.6255L23.8676 20.6251L23.0212 21.0281ZM20.279 19.4523L20.084 20.3693L20.0906 20.3707L20.279 19.4523ZM17.9997 19.1318L17.9177 20.0657L17.926 20.0664L17.9342 20.067L17.9997 19.1318ZM13.7351 19.1318L13.7999 20.067L13.8085 20.0664L13.8172 20.0657L13.7351 19.1318ZM11.4559 19.4523L11.6443 20.3707L11.6516 20.3691L11.4559 19.4523ZM16 31.9375C24.802 31.9375 31.9375 24.802 31.9375 16H30.0625C30.0625 23.7665 23.7665 30.0625 16 30.0625V31.9375ZM0.0624999 16C0.0624999 24.802 7.19796 31.9375 16 31.9375V30.0625C8.2335 30.0625 1.9375 23.7665 1.9375 16H0.0624999ZM16 0.0624999C7.19796 0.0624999 0.0624999 7.19796 0.0624999 16H1.9375C1.9375 8.2335 8.2335 1.9375 16 1.9375V0.0624999ZM31.9375 16C31.9375 7.19796 24.802 0.0624999 16 0.0624999V1.9375C23.7665 1.9375 30.0625 8.2335 30.0625 16H31.9375ZM15.8718 17.4824C18.9563 17.4824 21.4568 14.9819 21.4568 11.8974H19.5818C19.5818 13.9464 17.9208 15.6074 15.8718 15.6074V17.4824ZM10.2868 11.8974C10.2868 14.9819 12.7873 17.4824 15.8718 17.4824V15.6074C13.8228 15.6074 12.1618 13.9464 12.1618 11.8974H10.2868ZM15.8718 6.31245C12.7873 6.31245 10.2868 8.81293 10.2868 11.8974H12.1618C12.1618 9.84846 13.8228 8.18745 15.8718 8.18745V6.31245ZM21.4568 11.8974C21.4568 8.81293 18.9563 6.31245 15.8718 6.31245V8.18745C17.9208 8.18745 19.5818 9.84847 19.5818 11.8974H21.4568ZM9.43753 21.9683C9.43682 21.7837 9.47809 21.6014 9.55823 21.4352L7.86919 20.6211C7.66561 21.0435 7.56075 21.5066 7.56254 21.9755L9.43753 21.9683ZM9.56085 22.5229C9.4794 22.3511 9.43727 22.1633 9.43753 21.9732L7.56253 21.9706C7.56189 22.4394 7.66576 22.9025 7.86657 23.3261L9.56085 22.5229ZM11.6442 23.5713C11.1613 23.4772 10.6783 23.3396 10.2841 23.1429C9.88473 22.9437 9.65957 22.7261 9.557 22.5149L7.87042 23.3341C8.22192 24.0578 8.84701 24.5213 9.44705 24.8207C10.0522 25.1226 10.7177 25.301 11.2854 25.4117L11.6442 23.5713ZM13.7984 23.8855C13.0821 23.8371 12.3705 23.7338 11.67 23.5767L11.2596 25.4063C12.0536 25.5843 12.86 25.7013 13.6718 25.7563L13.7984 23.8855ZM14.5275 23.9368C14.2475 23.9368 14.0808 23.934 13.919 23.9016L13.5513 25.7402C13.9236 25.8147 14.2734 25.8118 14.5275 25.8118V23.9368ZM17.9206 23.8868C16.8089 23.981 15.692 23.9982 14.5779 23.9382L14.4771 25.8105C15.6775 25.8751 16.881 25.8566 18.0789 25.7551L17.9206 23.8868ZM20.0754 23.5764C19.371 23.7331 18.6558 23.8364 17.9359 23.8856L18.0636 25.7562C18.8776 25.7007 19.6862 25.5838 20.4826 25.4066L20.0754 23.5764ZM22.1747 22.5215C22.0769 22.7269 21.8559 22.943 21.4552 23.1429C21.0607 23.3397 20.5774 23.4774 20.0981 23.5716L20.4598 25.4114C21.0222 25.3008 21.6874 25.1224 22.2923 24.8207C22.891 24.522 23.5202 24.057 23.8676 23.3276L22.1747 22.5215ZM22.1745 21.4307C22.3387 21.7759 22.3387 22.1767 22.1745 22.5219L23.8678 23.3271C24.2742 22.4724 24.2742 21.4802 23.8678 20.6255L22.1745 21.4307ZM20.0906 20.3707C20.5732 20.4696 21.0579 20.6095 21.4537 20.8079C21.8557 21.0093 22.0769 21.2257 22.1747 21.4312L23.8676 20.6251C23.5203 19.8957 22.8912 19.431 22.2938 19.1316C21.6902 18.8292 21.0264 18.6486 20.4674 18.5339L20.0906 20.3707ZM17.9342 20.067C18.657 20.1176 19.3753 20.2186 20.084 20.3693L20.4739 18.5353C19.6799 18.3665 18.8751 18.2533 18.0653 18.1966L17.9342 20.067ZM13.8172 20.0657C15.1814 19.9458 16.5535 19.9458 17.9177 20.0657L18.0818 18.1979C16.6084 18.0684 15.1265 18.0684 13.6531 18.1979L13.8172 20.0657ZM11.6516 20.3691C12.3597 20.218 13.0776 20.1171 13.7999 20.067L13.6703 18.1965C12.86 18.2526 12.0546 18.3659 11.2602 18.5354L11.6516 20.3691ZM9.55223 21.4474C9.64912 21.2536 9.8771 21.0316 10.2885 20.8209C10.6887 20.6159 11.1752 20.4669 11.6443 20.3707L11.2675 18.5339C10.6949 18.6514 10.0329 18.8451 9.43369 19.1521C8.84573 19.4532 8.22346 19.9123 7.87518 20.6089L9.55223 21.4474Z" fill="#D4D4D4" fill-opacity="0.5" mask="url(#path-1-inside-1_381_763)"/>
</g>
<defs>
<filter id="filter0_d_381_763" x="0" y="0" width="32" height="32" filterUnits="userSpaceOnUse" color-interpolation-filters="sRGB">
<feFlood flood-opacity="0" result="BackgroundImageFix"/>
<feColorMatrix in="SourceAlpha" type="matrix" values="0 0 0 0 0 0 0 0 0 0 0 0 0 0 0 0 0 0 127 0" result="hardAlpha"/>
<feOffset/>
<feGaussianBlur stdDeviation="0.5"/>
<feComposite in2="hardAlpha" operator="out"/>
<feColorMatrix type="matrix" values="0 0 0 0 0 0 0 0 0 0 0 0 0 0 0 0 0 0 0.6 0"/>
<feBlend mode="normal" in2="BackgroundImageFix" result="effect1_dropShadow_381_763"/>
<feBlend mode="normal" in="SourceGraphic" in2="effect1_dropShadow_381_763" result="shape"/>
</filter>
</defs>
</svg>
