<svg width="24" height="24" viewBox="0 0 24 24" fill="none" xmlns="http://www.w3.org/2000/svg">
<path fill-rule="evenodd" clip-rule="evenodd" d="M24 12C24 18.6274 18.6274 24 12 24C5.37258 24 0 18.6274 0 12C0 5.37258 5.37258 0 12 0C18.6274 0 24 5.37258 24 12ZM15.6154 8.71795C15.6154 10.7713 13.9508 12.4359 11.8974 12.4359C9.84405 12.4359 8.17946 10.7713 8.17946 8.71795C8.17946 6.66457 9.84405 4.99998 11.8974 4.99998C13.9508 4.99998 15.6154 6.66457 15.6154 8.71795ZM6.17097 16.0225C6.05748 16.258 5.99903 16.5161 6.00003 16.7775C5.99966 17.0411 6.05806 17.3015 6.17097 17.5396C6.53422 18.2875 7.53138 18.6294 8.37184 18.7932C8.96964 18.9273 9.57684 19.0154 10.1881 19.0567C10.4018 19.0995 10.6083 19.0995 10.822 19.0995C11.7478 19.1493 12.676 19.1351 13.5998 19.0567C14.2134 19.0149 14.8229 18.9268 15.4232 18.7932C16.2565 18.6294 17.2608 18.2875 17.6169 17.5396C17.8451 17.0597 17.8451 16.5025 17.6169 16.0225C17.2608 15.2747 16.2565 14.9328 15.4232 14.7618C14.8221 14.6341 14.2128 14.5484 13.5998 14.5054C12.4647 14.4057 11.3231 14.4057 10.1881 14.5054C9.57503 14.5479 8.96572 14.6336 8.36472 14.7618C7.53138 14.9328 6.5271 15.3103 6.17097 16.0225Z" fill="#F7F7F7"/>
</svg>
