<svg width="24" height="24" viewBox="0 0 24 24" fill="none" xmlns="http://www.w3.org/2000/svg">
<path fill-rule="evenodd" clip-rule="evenodd" d="M21 12C21 16.9706 16.9706 21 12 21C7.02944 21 3 16.9706 3 12C3 7.02944 7.02944 3 12 3C16.9706 3 21 7.02944 21 12ZM14.7116 9.53847C14.7116 11.0785 13.4631 12.3269 11.9231 12.3269C10.383 12.3269 9.13459 11.0785 9.13459 9.53847C9.13459 7.99843 10.383 6.74998 11.9231 6.74998C13.4631 6.74998 14.7116 7.99843 14.7116 9.53847ZM7.62823 15.0169C7.54311 15.1935 7.49927 15.3871 7.50002 15.5831C7.49975 15.7808 7.54355 15.9761 7.62823 16.1547C7.90066 16.7156 8.64853 16.972 9.27888 17.0949C9.72723 17.1955 10.1826 17.2615 10.6411 17.2926C10.8013 17.3246 10.9562 17.3246 11.1165 17.3246H11.1165C11.8109 17.362 12.507 17.3513 13.1999 17.2926C13.66 17.2611 14.1172 17.1951 14.5674 17.0949C15.1924 16.972 15.9456 16.7156 16.2127 16.1547C16.3839 15.7948 16.3839 15.3769 16.2127 15.0169C15.9456 14.456 15.1924 14.1996 14.5674 14.0714C14.1166 13.9755 13.6596 13.9113 13.1999 13.8791C12.3486 13.8043 11.4924 13.8043 10.6411 13.8791C10.1813 13.9109 9.72429 13.9752 9.27354 14.0714C8.64853 14.1996 7.89532 14.4827 7.62823 15.0169Z" fill="#F7F7F7"/>
</svg>
