<svg width="24" height="24" viewBox="0 0 24 24" fill="none" xmlns="http://www.w3.org/2000/svg">
<path d="M21.66 10.44L20.68 14.62C19.84 18.23 18.18 19.69 15.06 19.39C14.56 19.35 14.02 19.26 13.44 19.12L11.76 18.72C7.59 17.73 6.3 15.67 7.28 11.49L8.26 7.29999C8.46 6.44999 8.7 5.70999 9 5.09999C10.17 2.67999 12.16 2.02999 15.5 2.81999L17.17 3.20999C21.36 4.18999 22.64 6.25999 21.66 10.44Z" stroke="#F7F7F7" stroke-width="1.5" stroke-linecap="round" stroke-linejoin="round"/>
<path d="M15.06 19.39C14.44 19.81 13.66 20.16 12.71 20.47L11.13 20.99C7.16001 22.27 5.07001 21.2 3.78001 17.23L2.50001 13.28C1.22001 9.31001 2.28001 7.21001 6.25001 5.93001L7.83001 5.41001C8.24001 5.28001 8.63001 5.17001 9.00001 5.10001C8.70001 5.71001 8.46001 6.45001 8.26001 7.30001L7.28001 11.49C6.30001 15.67 7.59001 17.73 11.76 18.72L13.44 19.12C14.02 19.26 14.56 19.35 15.06 19.39Z" stroke="#F7F7F7" stroke-width="1.5" stroke-linecap="round" stroke-linejoin="round"/>
<path d="M12.0726 10.3009L12.3467 9.13263C12.6983 7.63332 13.9034 7.26889 15.0224 8.32226L15.8979 9.1439L16.7734 9.96555C17.8925 11.0189 17.6047 12.2456 16.134 12.6916L14.9845 13.0382L13.8349 13.3849C12.3643 13.8308 11.4469 12.9685 11.7986 11.4692L12.0726 10.3009V10.3009Z" stroke="#F7F7F7" stroke-width="1.5" stroke-miterlimit="10" stroke-linecap="round" stroke-linejoin="round"/>
</svg>
