<svg width="24" height="24" viewBox="0 0 24 24" fill="none" xmlns="http://www.w3.org/2000/svg">
<g clip-path="url(#clip0_243_756)">
<circle cx="12" cy="12" r="12" fill="#171717"/>
<path fill-rule="evenodd" clip-rule="evenodd" d="M14.8958 11.1125C14.8958 13.2019 13.202 14.8957 11.1125 14.8957C9.02308 14.8957 7.32925 13.2019 7.32925 11.1125C7.32925 9.02304 9.02308 7.32924 11.1125 7.32924C13.202 7.32924 14.8958 9.02304 14.8958 11.1125ZM14.2272 15.1669C13.3648 15.8304 12.2848 16.2249 11.1125 16.2249C8.28895 16.2249 5.99999 13.936 5.99999 11.1125C5.99999 8.28892 8.28895 5.99999 11.1125 5.99999C13.9361 5.99999 16.2251 8.28892 16.2251 11.1125C16.2251 12.2846 15.8306 13.3646 15.1672 14.227L17.8054 16.8654C18.0649 17.125 18.0649 17.5458 17.8053 17.8054C17.5457 18.0649 17.1249 18.0649 16.8654 17.8053L14.2272 15.1669Z" fill="#F7F7F7"/>
</g>
<defs>
<clipPath id="clip0_243_756">
<rect width="24" height="24" fill="white"/>
</clipPath>
</defs>
</svg>
