<svg width="33" height="32" viewBox="0 0 33 32" fill="none" xmlns="http://www.w3.org/2000/svg">
<g filter="url(#filter0_d_381_764)">
<mask id="path-1-inside-1_381_764" fill="white">
<path fill-rule="evenodd" clip-rule="evenodd" d="M16.5417 31C24.8259 31 31.5417 24.2843 31.5417 16C31.5417 7.71573 24.8259 1 16.5417 1C8.2574 1 1.54167 7.71573 1.54167 16C1.54167 24.2843 8.2574 31 16.5417 31ZM15.4323 19.6196C18.0441 19.6196 20.1614 17.5024 20.1614 14.8906C20.1614 12.2788 18.0441 10.1616 15.4323 10.1616C12.8205 10.1616 10.7032 12.2788 10.7032 14.8906C10.7032 17.5024 12.8205 19.6196 15.4323 19.6196ZM15.4323 21.2812C16.8976 21.2812 18.2477 20.788 19.3257 19.9587L22.6234 23.2567C22.9478 23.5811 23.4739 23.5811 23.7983 23.2567C24.1228 22.9323 24.1228 22.4063 23.7984 22.0818L20.5006 18.7838C21.3299 17.7058 21.823 16.3558 21.823 14.8906C21.823 11.3612 18.9618 8.5 15.4323 8.5C11.9029 8.5 9.04166 11.3612 9.04166 14.8906C9.04166 18.42 11.9029 21.2812 15.4323 21.2812Z"/>
</mask>
<path fill-rule="evenodd" clip-rule="evenodd" d="M16.5417 31C24.8259 31 31.5417 24.2843 31.5417 16C31.5417 7.71573 24.8259 1 16.5417 1C8.2574 1 1.54167 7.71573 1.54167 16C1.54167 24.2843 8.2574 31 16.5417 31ZM15.4323 19.6196C18.0441 19.6196 20.1614 17.5024 20.1614 14.8906C20.1614 12.2788 18.0441 10.1616 15.4323 10.1616C12.8205 10.1616 10.7032 12.2788 10.7032 14.8906C10.7032 17.5024 12.8205 19.6196 15.4323 19.6196ZM15.4323 21.2812C16.8976 21.2812 18.2477 20.788 19.3257 19.9587L22.6234 23.2567C22.9478 23.5811 23.4739 23.5811 23.7983 23.2567C24.1228 22.9323 24.1228 22.4063 23.7984 22.0818L20.5006 18.7838C21.3299 17.7058 21.823 16.3558 21.823 14.8906C21.823 11.3612 18.9618 8.5 15.4323 8.5C11.9029 8.5 9.04166 11.3612 9.04166 14.8906C9.04166 18.42 11.9029 21.2812 15.4323 21.2812Z" fill="#BDBDBD"/>
<path d="M19.3257 19.9587L19.9887 19.2958L19.4066 18.7137L18.7541 19.2156L19.3257 19.9587ZM22.6234 23.2567L23.2863 22.5938L23.2863 22.5938L22.6234 23.2567ZM23.7983 23.2567L24.4612 23.9197L24.4612 23.9197L23.7983 23.2567ZM23.7984 22.0818L24.4613 21.4189L24.4613 21.4189L23.7984 22.0818ZM20.5006 18.7838L19.7576 18.2121L19.2556 18.8646L19.8377 19.4467L20.5006 18.7838ZM30.6042 16C30.6042 23.7665 24.3082 30.0625 16.5417 30.0625V31.9375C25.3437 31.9375 32.4792 24.802 32.4792 16H30.6042ZM16.5417 1.9375C24.3082 1.9375 30.6042 8.2335 30.6042 16H32.4792C32.4792 7.19796 25.3437 0.0624999 16.5417 0.0624999V1.9375ZM2.47917 16C2.47917 8.2335 8.77517 1.9375 16.5417 1.9375V0.0624999C7.73963 0.0624999 0.604172 7.19796 0.604172 16H2.47917ZM16.5417 30.0625C8.77517 30.0625 2.47917 23.7665 2.47917 16H0.604172C0.604172 24.802 7.73963 31.9375 16.5417 31.9375V30.0625ZM19.2239 14.8906C19.2239 16.9846 17.5264 18.6821 15.4323 18.6821V20.5571C18.5619 20.5571 21.0989 18.0201 21.0989 14.8906H19.2239ZM15.4323 11.0991C17.5264 11.0991 19.2239 12.7966 19.2239 14.8906H21.0989C21.0989 11.761 18.5619 9.22405 15.4323 9.22405V11.0991ZM11.6407 14.8906C11.6407 12.7966 13.3383 11.0991 15.4323 11.0991V9.22405C12.3028 9.22405 9.76574 11.761 9.76574 14.8906H11.6407ZM15.4323 18.6821C13.3383 18.6821 11.6407 16.9846 11.6407 14.8906H9.76574C9.76574 18.0201 12.3028 20.5571 15.4323 20.5571V18.6821ZM18.7541 19.2156C17.8342 19.9233 16.6837 20.3437 15.4323 20.3437V22.2187C17.1115 22.2187 18.6612 21.6528 19.8974 20.7017L18.7541 19.2156ZM23.2863 22.5938L19.9887 19.2958L18.6628 20.6216L21.9605 23.9195L23.2863 22.5938ZM23.1354 22.5938C23.1771 22.5521 23.2447 22.5521 23.2863 22.5938L21.9605 23.9195C22.651 24.6101 23.7706 24.6102 24.4612 23.9197L23.1354 22.5938ZM23.1354 22.7447C23.0938 22.703 23.0938 22.6354 23.1354 22.5938L24.4612 23.9197C25.1518 23.2291 25.1518 22.1095 24.4613 21.4189L23.1354 22.7447ZM19.8377 19.4467L23.1354 22.7447L24.4613 21.4189L21.1636 18.1209L19.8377 19.4467ZM20.8855 14.8906C20.8855 16.1419 20.4652 17.2923 19.7576 18.2121L21.2437 19.3554C22.1946 18.1193 22.7605 16.5697 22.7605 14.8906H20.8855ZM15.4323 9.4375C18.444 9.4375 20.8855 11.8789 20.8855 14.8906H22.7605C22.7605 10.8434 19.4796 7.5625 15.4323 7.5625V9.4375ZM9.97916 14.8906C9.97916 11.8789 12.4206 9.4375 15.4323 9.4375V7.5625C11.3851 7.5625 8.10416 10.8434 8.10416 14.8906H9.97916ZM15.4323 20.3437C12.4206 20.3437 9.97916 17.9022 9.97916 14.8906H8.10416C8.10416 18.9378 11.3851 22.2187 15.4323 22.2187V20.3437Z" fill="#D4D4D4" fill-opacity="0.5" mask="url(#path-1-inside-1_381_764)"/>
</g>
<defs>
<filter id="filter0_d_381_764" x="0.541672" y="0" width="32" height="32" filterUnits="userSpaceOnUse" color-interpolation-filters="sRGB">
<feFlood flood-opacity="0" result="BackgroundImageFix"/>
<feColorMatrix in="SourceAlpha" type="matrix" values="0 0 0 0 0 0 0 0 0 0 0 0 0 0 0 0 0 0 127 0" result="hardAlpha"/>
<feOffset/>
<feGaussianBlur stdDeviation="0.5"/>
<feComposite in2="hardAlpha" operator="out"/>
<feColorMatrix type="matrix" values="0 0 0 0 0 0 0 0 0 0 0 0 0 0 0 0 0 0 0.6 0"/>
<feBlend mode="normal" in2="BackgroundImageFix" result="effect1_dropShadow_381_764"/>
<feBlend mode="normal" in="SourceGraphic" in2="effect1_dropShadow_381_764" result="shape"/>
</filter>
</defs>
</svg>
