<svg width="24" height="24" viewBox="0 0 24 24" fill="none" xmlns="http://www.w3.org/2000/svg">
<g clip-path="url(#clip0_243_758)">
<path fill-rule="evenodd" clip-rule="evenodd" d="M12 24C18.6274 24 24 18.6274 24 12C24 5.37258 18.6274 0 12 0C5.37258 0 0 5.37258 0 12C0 18.6274 5.37258 24 12 24ZM11.1125 14.8957C13.202 14.8957 14.8958 13.2019 14.8958 11.1125C14.8958 9.02304 13.202 7.32924 11.1125 7.32924C9.02308 7.32924 7.32925 9.02304 7.32925 11.1125C7.32925 13.2019 9.02308 14.8957 11.1125 14.8957ZM11.1125 16.2249C12.2848 16.2249 13.3648 15.8304 14.2272 15.1669L16.8654 17.8053C17.1249 18.0649 17.5457 18.0649 17.8053 17.8054C18.0649 17.5458 18.0649 17.125 17.8054 16.8654L15.1672 14.227C15.8306 13.3646 16.2251 12.2846 16.2251 11.1125C16.2251 8.28892 13.9361 5.99999 11.1125 5.99999C8.28895 5.99999 5.99999 8.28892 5.99999 11.1125C5.99999 13.936 8.28895 16.2249 11.1125 16.2249Z" fill="#F7F7F7"/>
</g>
<defs>
<clipPath id="clip0_243_758">
<rect width="24" height="24" fill="white"/>
</clipPath>
</defs>
</svg>
