<svg width="24" height="24" viewBox="0 0 24 24" fill="none" xmlns="http://www.w3.org/2000/svg">
<g id="file-remove_path 3">
<path id="Vector" d="M13.551 4.55286C13.326 4.32789 13.0208 4.2015 12.7027 4.20147L7.20012 4.20087C6.53733 4.20078 6 4.73808 6 5.40087V18.6007C6 19.2635 6.53727 19.8007 7.2 19.8007H16.8C17.4627 19.8007 18 19.2635 18 18.6007V9.49821C18 9.17991 17.8736 8.87466 17.6485 8.6496L17.5883 8.58942L13.606 4.60791L13.551 4.55286Z" stroke="#EFEFEF" stroke-width="1.4" stroke-linecap="round" stroke-linejoin="round"/>
<path id="Vector_2" d="M13.6243 4.62435C13.4677 4.46778 13.2 4.57866 13.2 4.80006V7.80006C13.2 8.46282 13.7373 9.00006 14.4 9.00006H17.4C17.6214 9.00006 17.7323 8.73237 17.5757 8.5758" stroke="#EFEFEF" stroke-width="1.4" stroke-linecap="round" stroke-linejoin="round"/>
<path id="Vector_3" d="M9 12.1001H12H15M9 15.5H12H15" stroke="#EFEFEF" stroke-width="1.4" stroke-linecap="round" stroke-linejoin="round"/>
</g>
</svg>
